# xmcd
# Copyright (C) 1995-1998 Ti Kan
#
# Track frame offsets:
#       150
#       750
#       1350
#
# Disc length: 54 seconds
#
# Revision: 0
# Processed by: cddbd v1.5.2PL0 Copyright (c) Steve Scherf et al.
# Submitted via: CD-Import v1.0
#
DISCID=0c003403
DTITLE=Jingle - 
DYEAR=1900
DGENRE=
TTITLE0=Soultrain1
TTITLE1=Soultrain2
TTITLE2=Soultrain3
EXTD=
EXTT0=
EXTT1=
EXTT2=
PLAYORDER=
